#!OML:ASF Y:\EmotionMaleHayes\Project 1\Capture day 1\Session 1\Male1.ASF
:FULLY-SPECIFIED
:DEGREES
1
root -30.6749 16.7728 1.49531 51.9355 85.501 51.633
lowerback 4.50769 1.84037 -4.1678
upperback 1.54204 2.2901 -0.822921
thorax -1.06724 1.15585 1.36388
lowerneck -22.3071 1.60194 4.30648
upperneck 28.7778 1.83907 -2.3014
head 13.517 1.10046 -1.27756
rclavicle -4.81121e-015 6.95746e-015
rhumerus -33.9756 3.87814 -89.3713
rradius 31.7993
rwrist 0.29791
rhand -13.0938 -28.5087
rfingers 7.12502
rthumb 13.0028 -58.0834
lclavicle -4.81121e-015 6.95746e-015
lhumerus -32.5854 -8.3865 88.9161
lradius 22.6706
lwrist -17.2866
lhand -15.4005 -30.4213
lfingers 7.12502
lthumb 10.7784 -0.7178
rfemur 7.35381 -4.59373 10.3516
rtibia 6.39303
rfoot -22.4824 -0.94415
rtoes 7.52667
lfemur 10.3272 1.43979 -16.7316
ltibia 4.30471
lfoot -19.2639 14.7711
ltoes -22.395
2
root -30.6581 16.7685 1.49824 54.0097 85.334 53.7039
lowerback 4.42754 1.81605 -4.40101
upperback 1.63938 2.25721 -0.877706
thorax -0.926722 1.13656 1.44426
lowerneck -22.2972 1.55711 4.27352
upperneck 29.0379 1.78364 -2.23551
head 13.6215 1.08921 -1.25683
rclavicle -6.2027e-015 1.13804e-014
rhumerus -33.9448 4.06869 -89.4094
rradius 31.9485
rwrist 0.0356996
rhand -13.6605 -27.7999
rfingers 7.12502
rthumb 12.4564 -57.4087
lclavicle -6.2027e-015 1.13804e-014
lhumerus -32.3718 -9.37673 89.2009
lradius 22.6619
lwrist -18.0617
lhand -16.7337 -30.4221
lfingers 7.12502
lthumb 9.49229 -0.655878
rfemur 7.35206 -4.65649 10.0797
rtibia 6.53796
rfoot -22.729 -0.998466
rtoes 6.99981
lfemur 10.3516 1.70354 -16.9197
ltibia 4.42363
lfoot -19.4201 14.5745
ltoes -23.2152
3
root -30.6408 16.7646 1.50174 54.5002 85.2739 54.1873
lowerback 4.3643 1.80348 -4.41472
upperback 1.74195 2.24871 -0.937933
thorax -0.783339 1.1294 1.39476
lowerneck -22.3812 1.52416 4.27977
upperneck 29.2983 1.71424 -2.14482
head 13.7465 1.07855 -1.23527
rclavicle 1.74402e-014 -1.0635e-014
rhumerus -33.9736 4.20571 -89.4921
rradius 32.2367
rwrist -0.28675
rhand -14.1886 -27.1677
rfingers 7.12502
rthumb 11.9473 -56.8068
lclavicle 1.74402e-014 -1.0635e-014
lhumerus -32.1269 -10.2612 89.2846
lradius 22.9035
lwrist -18.2837
lhand -16.2512 -30.5183
lfingers 7.12502
lthumb 9.95779 -0.773879
rfemur 7.29787 -4.74329 10.0076
rtibia 6.77058
rfoot -23.0959 -0.918155
rtoes 6.70519
lfemur 10.5621 1.49548 -17.0962
ltibia 4.22295
lfoot -19.6582 14.7937
ltoes -24.2493
4
root -30.6338 16.7637 1.51278 53.6817 85.4108 53.2463
lowerback 4.33959 1.7421 -4.33791
upperback 1.74414 2.17112 -0.868942
thorax -0.7629 1.08982 1.42786
lowerneck -22.3169 1.54002 4.30926
upperneck 29.4947 1.75909 -2.18589
head 13.8195 1.1018 -1.2493
rclavicle 4.16516e-015 -5.09386e-015
rhumerus -34.1624 4.50675 -89.5474
rradius 32.6206
rwrist -0.584031
rhand -13.7407 -27.3153
rfingers 7.12502
rthumb 12.3791 -56.9287
lclavicle 4.16516e-015 -5.09386e-015
lhumerus -31.9471 -10.8585 89.3204
lradius 23.1604
lwrist -18.397
lhand -15.2875 -30.6363
lfingers 7.12502
lthumb 10.8874 -0.938547
rfemur 7.04922 -4.41346 10.4245
rtibia 7.0078
rfoot -23.4284 -1.30671
rtoes 6.7026
lfemur 10.5085 1.31671 -16.9042
ltibia 4.20782
lfoot -20.1006 14.9224
ltoes -24.1824
5
root -30.6473 16.7678 1.53439 45.6919 85.9485 44.9818
lowerback 4.4564 1.73399 -3.72288
upperback 1.6451 2.17396 -0.608855
thorax -0.918824 1.0936 1.34583
lowerneck -22.2363 1.53536 4.4108
upperneck 29.6981 1.78117 -2.32296
head 13.8932 1.11039 -1.31848
rclavicle -3.73964e-015 -1.0138e-014
rhumerus -34.3313 4.84774 -89.6251
rradius 32.9729
rwrist -0.891266
rhand -13.7185 -26.7894
rfingers 7.12502
rthumb 12.4005 -56.4016
lclavicle -3.73964e-015 -1.0138e-014
lhumerus -31.7237 -11.3684 89.3091
lradius 23.3366
lwrist -18.657
lhand -15.0424 -30.5245
lfingers 7.12502
lthumb 11.1239 -0.83938
rfemur 6.43267 -2.96369 12.0722
rtibia 7.30398
rfoot -23.9551 -2.92707
rtoes 5.62297
lfemur 10.0154 1.54539 -15.5835
ltibia 4.59676
lfoot -20.9104 14.6069
ltoes -22.1031
6
root -30.6259 16.7619 1.5395 46.9492 85.9307 46.208
lowerback 4.38155 1.70428 -3.76661
upperback 1.73413 2.13994 -0.654178
thorax -0.78349 1.0742 1.32972
lowerneck -22.2805 1.50342 4.51051
upperneck 29.8971 1.72772 -2.38435
head 13.988 1.09503 -1.37105
rclavicle -3.68994e-015 3.8266e-015
rhumerus -34.4664 5.10073 -89.7221
rradius 33.3463
rwrist -1.22918
rhand -14.2589 -26.0568
rfingers 7.12502
rthumb 11.8794 -55.6998
lclavicle -3.68994e-015 3.8266e-015
lhumerus -31.4208 -12.071 89.2752
lradius 23.4943
lwrist -18.7597
lhand -15.5774 -30.4605
lfingers 7.12502
lthumb 10.6079 -0.748221
rfemur 6.41933 -2.81208 12.0967
rtibia 7.45329
rfoot -24.3841 -3.14981
rtoes 4.86256
lfemur 9.98843 1.9875 -15.5038
ltibia 4.77732
lfoot -21.6122 13.9446
ltoes -20.3528
7
root -30.6049 16.7579 1.54962 46.908 86.0589 46.2857
lowerback 4.51969 1.67901 -3.74105
upperback 1.8365 2.10595 -0.60715
thorax -0.754357 1.05632 1.36323
lowerneck -22.2254 1.47674 4.47564
upperneck 29.9827 1.67634 -2.27726
head 14.0097 1.08768 -1.33173
rclavicle -1.62444e-015 1.56791e-014
rhumerus -34.6729 5.16701 -89.7182
rradius 33.7402
rwrist -1.42341
rhand -14.6286 -25.7886
rfingers 7.12502
rthumb 11.523 -55.4519
lclavicle -1.62444e-015 1.56791e-014
lhumerus -31.1644 -12.7387 89.2745
lradius 23.6893
lwrist -18.766
lhand -16.4085 -30.5274
lfingers 7.12502
lthumb 9.80602 -0.775696
rfemur 6.5907 -3.02504 12.1649
rtibia 7.5807
rfoot -24.6297 -2.85061
rtoes 6.04397
lfemur 10.2564 1.90277 -15.3497
ltibia 4.70448
lfoot -22.0012 13.8194
ltoes -19.7099
8
root -30.5877 16.7564 1.56546 48.1949 86.1639 47.6011
lowerback 4.65496 1.63604 -3.84784
upperback 1.87948 2.04046 -0.590953
thorax -0.786243 1.02384 1.43986
lowerneck -22.1158 1.46586 4.57131
upperneck 30.0316 1.64403 -2.30039
head 14.0073 1.0849 -1.36357
rclavicle -6.09399e-015 -7.00716e-015
rhumerus -34.964 5.17834 -89.7619
rradius 34.1846
rwrist -1.55309
rhand -14.7586 -25.526
rfingers 7.12502
rthumb 11.3976 -55.1963
lclavicle -6.09399e-015 -7.00716e-015
lhumerus -30.9817 -13.3569 89.2099
lradius 24.0097
lwrist -18.7225
lhand -16.184 -30.5981
lfingers 7.12502
lthumb 10.0227 -0.856729
rfemur 6.7274 -2.53949 12.4422
rtibia 7.58975
rfoot -25.0154 -3.3568
rtoes 7.86116
lfemur 10.5124 1.35372 -15.4335
ltibia 4.38363
lfoot -22.0555 14.2247
ltoes -20.1806
9
root -30.5687 16.7532 1.57868 51.5939 85.974 50.8866
lowerback 4.6059 1.56703 -4.26786
upperback 1.91456 1.93535 -0.640531
thorax -0.728218 0.969343 1.63151
lowerneck -22.1132 1.50372 4.67701
upperneck 30.1405 1.71353 -2.43686
head 14.0598 1.11049 -1.42468
rclavicle 1.81857e-014 -2.60905e-014
rhumerus -35.2442 5.56854 -89.8851
rradius 34.705
rwrist -1.8371
rhand -14.4769 -25.8998
rfingers 7.12502
rthumb 11.6692 -55.5549
lclavicle 1.81857e-014 -2.60905e-014
lhumerus -30.7683 -13.7994 89.1202
lradius 24.3756
lwrist -18.6566
lhand -15.333 -30.6754
lfingers 7.12502
lthumb 10.8436 -0.975331
rfemur 6.61311 -2.50275 12.1664
rtibia 7.76724
rfoot -25.3411 -3.4686
rtoes 8.28977
lfemur 10.5941 1.26203 -15.7692
ltibia 4.11525
lfoot -21.89 14.3684
ltoes -21.6556
10
root -30.5445 16.7459 1.59018 53.8763 85.8953 53.0817
lowerback 4.47114 1.4748 -4.50216
upperback 2.01594 1.81541 -0.645831
thorax -0.547816 0.904431 1.76889
lowerneck -22.1366 1.55879 4.69221
upperneck 30.2226 1.81185 -2.49329
head 14.1059 1.14797 -1.43258
rclavicle -1.42255e-015 -1.81391e-014
rhumerus -35.4421 5.91083 -89.9264
rradius 35.1666
rwrist -2.05156
rhand -14.1326 -26.2184
rfingers 7.12502
rthumb 12.0013 -55.8543
lclavicle -1.42255e-015 -1.81391e-014
lhumerus -30.4413 -14.1455 89.0389
lradius 24.644
lwrist -18.4649
lhand -14.9226 -30.9077
lfingers 7.12502
lthumb 11.2394 -1.22883
rfemur 6.51301 -2.65441 11.9824
rtibia 7.98141
rfoot -25.5635 -3.40498
rtoes 8.11733
lfemur 10.6675 1.60788 -15.7635
ltibia 3.95576
lfoot -21.7824 14.0549
ltoes -22.9773
11
root -30.5215 16.7387 1.60668 55.5071 86.1132 54.6141
lowerback 4.41238 1.36732 -4.38828
upperback 2.0903 1.68371 -0.659982
thorax -0.426636 0.836402 1.70028
lowerneck -22.1431 1.60211 4.85043
upperneck 30.2491 1.82897 -2.53438
head 14.1224 1.16836 -1.4734
rclavicle -4.05334e-016 1.46852e-014
rhumerus -35.6844 5.97591 -90.0159
rradius 35.6572
rwrist -2.28194
rhand -14.1411 -25.6404
rfingers 7.12502
rthumb 11.993 -55.2768
lclavicle -4.05334e-016 1.46852e-014
lhumerus -30.2806 -14.719 88.8757
lradius 25.1439
lwrist -17.9508
lhand -15.0118 -30.8196
lfingers 7.12502
lthumb 11.1534 -1.13604
rfemur 6.49179 -2.61369 12.234
rtibia 8.03915
rfoot -25.7193 -3.60374
rtoes 8.35479
lfemur 10.6788 1.80176 -15.4102
ltibia 3.83813
lfoot -21.754 13.7594
ltoes -24.016
12
root -30.4997 16.7371 1.62584 59.4477 86.1933 58.5147
lowerback 4.57267 1.2733 -4.49174
upperback 2.08764 1.54656 -0.715666
thorax -0.511138 0.769919 1.70425
lowerneck -22.1308 1.59927 4.92939
upperneck 30.3244 1.79192 -2.50943
head 14.1518 1.16777 -1.48413
rclavicle 3.80273e-015 4.49129e-015
rhumerus -36.1508 6.19481 -90.1528
rradius 36.321
rwrist -2.72531
rhand -14.1974 -25.1408
rfingers 7.12502
rthumb 11.9387 -54.7804
lclavicle 3.80273e-015 4.49129e-015
lhumerus -30.1834 -15.5892 88.8042
lradius 25.564
lwrist -17.1604
lhand -15.3356 -30.4203
lfingers 7.12502
lthumb 10.8411 -0.720135
rfemur 6.65373 -2.30784 12.3757
rtibia 7.83065
rfoot -25.7233 -4.22464
rtoes 8.38874
lfemur 10.803 1.68794 -15.4062
ltibia 3.55237
lfoot -21.5435 13.9198
ltoes -25.7464
13
root -30.4742 16.7357 1.64298 63.6304 86.1235 62.7067
lowerback 4.66432 1.20435 -4.78989
upperback 2.18142 1.44343 -0.719994
thorax -0.465283 0.715808 1.8712
lowerneck -22.2962 1.57738 4.80934
upperneck 30.4438 1.77362 -2.43065
head 14.2368 1.15768 -1.43576
rclavicle 3.2318e-015 1.08897e-014
rhumerus -36.5054 6.46499 -90.123
rradius 36.96
rwrist -3.09914
rhand -14.0442 -25.0851
rfingers 7.12502
rthumb 12.0865 -54.716
lclavicle 3.2318e-015 1.08897e-014
lhumerus -30.0118 -16.171 88.7396
lradius 26.1601
lwrist -16.6691
lhand -15.2007 -30.2696
lfingers 7.12502
lthumb 10.9712 -0.576228
rfemur 6.89053 -2.02078 12.3509
rtibia 7.65618
rfoot -25.8381 -4.78308
rtoes 8.17586
lfemur 11.1351 1.22721 -15.7155
ltibia 2.99862
lfoot -21.3873 14.2568
ltoes -26.0624
14
root -30.4457 16.7297 1.65917 63.8293 86.1957 62.8024
lowerback 4.5811 1.15919 -4.80359
upperback 2.26315 1.39184 -0.6863
thorax -0.332177 0.686131 1.91896
lowerneck -22.4449 1.59726 4.897
upperneck 30.574 1.81355 -2.5695
head 14.3308 1.16621 -1.50091
rclavicle 1.70551e-014 -5.59703e-015
rhumerus -36.8047 6.73551 -90.1475
rradius 37.516
rwrist -3.52888
rhand -14.0277 -25.0424
rfingers 7.12502
rthumb 12.1024 -54.6723
lclavicle 1.70551e-014 -5.59703e-015
lhumerus -29.8778 -16.6481 88.6299
lradius 26.8105
lwrist -16.0303
lhand -15.04 -30.1045
lfingers 7.12502
lthumb 11.1262 -0.419436
rfemur 6.83022 -2.07262 12.4675
rtibia 7.81225
rfoot -26.125 -4.62745
rtoes 8.71184
lfemur 11.375 0.852629 -15.6868
ltibia 2.51849
lfoot -21.5124 14.5177
ltoes -25.6313
